<svg id="_x33_0" enable-background="new 0 0 64 64" height="512" viewBox="0 0 64 64" width="512" xmlns="http://www.w3.org/2000/svg" xmlns:xlink="http://www.w3.org/1999/xlink"><linearGradient id="SVGID_1_" gradientUnits="userSpaceOnUse" x1="32" x2="32" y1="63" y2="1"><stop offset="0" stop-color="#9f2fff"/><stop offset="1" stop-color="#0bb1d3"/></linearGradient><path d="m58 15h-1.292c-1.65 0-3.195.57-4.418 1.567-2.419-9.128-10.66-15.567-20.29-15.567s-17.871 6.439-20.29 15.567c-1.223-.997-2.768-1.567-4.418-1.567h-1.292c-2.757 0-5 2.243-5 5v1h3c.552 0 1 .448 1 1v2c0 .552-.448 1-1 1h-3v1c0 2.757 2.243 5 5 5h1.292c1.821 0 3.505-.703 4.778-1.9 1.722 5.382 5.23 9.026 8.113 12.009 2.149 2.226 4.028 4.182 4.65 6.274-.502.364-.833.951-.833 1.617v6c0 1.103.897 2 2 2 0 3.309 2.691 6 6 6s6-2.691 6-6c1.103 0 2-.897 2-2v-6c0-.666-.331-1.253-.833-1.617.622-2.092 2.501-4.048 4.65-6.274 2.883-2.983 6.391-6.627 8.113-12.009 1.273 1.197 2.957 1.9 4.778 1.9h1.292c2.757 0 5-2.243 5-5v-1h-3c-.552 0-1-.448-1-1v-2c0-.552.448-1 1-1h3v-1c0-2.757-2.243-5-5-5zm-26-12c9.202 0 16.992 6.5 18.666 15.499-.072.124-.154.241-.219.37l-.065.131h-6.445c-.373 0-.707-.227-.862-.604-.145-.35-.068-.745.196-1.009l1.457-1.459-5.656-5.656-1.459 1.458c-.264.263-.66.339-1.035.185-.351-.144-.578-.478-.578-.852v-2.063h-8v2.063c0 .373-.227.707-.604.862-.351.146-.746.067-1.009-.196l-1.459-1.457-5.656 5.656 1.458 1.459c.264.264.34.659.185 1.035-.144.351-.478.578-.852.578h-6.445l-.065-.131c-.065-.13-.147-.246-.219-.37 1.674-8.999 9.464-15.499 18.666-15.499zm11.937 22c-1.188 0-2.248.713-2.71 1.838-.455 1.1-.209 2.352.628 3.188l.045.045-2.828 2.828-.045-.044c-.836-.837-2.088-1.085-3.209-.62-1.105.453-1.818 1.514-1.818 2.702v.063h-4v-.063c0-1.188-.713-2.248-1.838-2.71-1.098-.454-2.351-.209-3.188.628l-.045.045-2.828-2.828.044-.045c.793-.793 1.049-1.955.681-3.026h2.27c1.423 2.442 4.055 4 6.905 4 4.411 0 8-3.589 8-8s-3.589-8-8-8c-2.849 0-5.482 1.558-6.905 4h-2.268c.369-1.059.115-2.23-.681-3.026l-.045-.045 2.828-2.828.045.044c.837.838 2.089 1.087 3.209.62 1.103-.454 1.816-1.515 1.816-2.703v-.063h4v.063c0 1.188.713 2.248 1.838 2.71 1.097.453 2.35.209 3.188-.628l.045-.045 2.828 2.828-.044.045c-.838.837-1.084 2.089-.62 3.209.453 1.105 1.514 1.818 2.702 1.818h.063v4zm-12.937 12v10h-2.2l-2.775-12.368.363-.363c.263-.263.66-.34 1.035-.185.35.145.577.479.577.853v2.063zm7 12 .001 2h-12.001v-2zm-5-2v-10h3v-2.063c0-.373.227-.707.604-.862.349-.146.745-.068 1.009.196l.363.362-2.776 12.367zm-5.465-20h8.924c-1.099 1.224-2.688 2-4.46 2-1.718 0-3.34-.752-4.464-2zm8.925-8h-8.924c1.124-1.248 2.746-2 4.465-2 1.77 0 3.359.776 4.459 2zm-29.168 10h-1.292c-1.304 0-2.416-.836-2.829-2h.829c1.654 0 3-1.346 3-3v-2c0-1.654-1.346-3-3-3h-.829c.413-1.164 1.525-2 2.829-2h1.292c1.905 0 3.619 1.059 4.472 2.764l.618 1.236h25.268c.223.627.35 1.298.35 2s-.128 1.373-.35 2h-25.268l-.618 1.236c-.853 1.705-2.567 2.764-4.472 2.764zm6.294-1.936.032-.064h6.445c.373 0 .707.227.862.604.145.35.068.745-.196 1.009l-1.457 1.459 4.744 4.744 2.609 11.626c-.833-2.382-2.784-4.422-5.004-6.721-3.137-3.248-6.671-6.934-8.035-12.657zm18.414 33.936c-2.206 0-4-1.794-4-4h8c0 2.206-1.794 4-4 4zm-6-6v-2h12.001l.001 2zm16.379-15.279c-2.22 2.299-4.171 4.339-5.004 6.721l2.609-11.626 4.744-4.744-1.458-1.459c-.264-.264-.34-.659-.185-1.035.144-.351.478-.578.852-.578h6.445l.032.064c-1.364 5.723-4.898 9.409-8.035 12.657zm17.621-20.721c-1.654 0-3 1.346-3 3v2c0 1.654 1.346 3 3 3h.829c-.413 1.164-1.525 2-2.829 2h-1.292c-1.905 0-3.619-1.059-4.472-2.764l-.618-1.236h-5.618v-4h5.618l.618-1.236c.853-1.705 2.567-2.764 4.472-2.764h1.292c1.304 0 2.416.836 2.829 2z" fill="url(#SVGID_1_)"/></svg>